<?xml version="1.0" standalone="no"?><!DOCTYPE svg PUBLIC "-//W3C//DTD SVG 1.1//EN" "http://www.w3.org/Graphics/SVG/1.1/DTD/svg11.dtd"><svg t="1659482155039" class="icon" viewBox="0 0 1024 1024" version="1.1" xmlns="http://www.w3.org/2000/svg" p-id="1271" xmlns:xlink="http://www.w3.org/1999/xlink" width="200" height="200"><defs><style type="text/css">@font-face { font-family: feedback-iconfont; src: url("//at.alicdn.com/t/font_1031158_u69w8yhxdu.woff2?t=1630033759944") format("woff2"), url("//at.alicdn.com/t/font_1031158_u69w8yhxdu.woff?t=1630033759944") format("woff"), url("//at.alicdn.com/t/font_1031158_u69w8yhxdu.ttf?t=1630033759944") format("truetype"); }
</style></defs><path d="M85.461333 898.133333c0.725333-8.618667 1.28-14.037333 1.706667-16.213333 26.666667-152.490667 158.848-268.330667 317.909333-268.330667 162.816 0 297.514667 121.344 319.658667 279.125334l0.512 5.12a37.76 37.76 0 0 1-37.674667 40.832H686.933333c-21.248 0-39.253333-15.530667-42.410666-36.565334-17.493333-117.333333-118.058667-207.232-239.445334-207.232-121.301333 0-221.781333 89.813333-239.36 207.061334-3.2 21.12-21.333333 36.736-42.666666 36.736h-0.426667a37.290667 37.290667 0 0 1-37.162667-40.533334z m319.616-325.162666c-133.76 0-242.090667-109.141333-242.090666-243.84S271.317333 85.333333 405.077333 85.333333c133.802667 0 242.133333 109.098667 242.133334 243.797334 0 134.698667-108.373333 243.84-242.133334 243.84z m0-81.28c89.173333 0 161.450667-72.746667 161.450667-162.56 0-89.770667-72.234667-162.56-161.450667-162.56-89.173333 0-161.408 72.789333-161.408 162.56 0 89.813333 72.234667 162.56 161.408 162.56z" fill="#5D6E7F" p-id="1272"></path><path d="M677.674667 640.725333A42.666667 42.666667 0 0 1 682.666667 555.648v-0.213333c149.461333 10.368 271.146667 128.341333 296.448 281.344l1.792 12.202666 0.341333 4.138667c1.706667 21.845333-13.781333 40.96-34.56 42.752L942.933333 896c-19.626667 0-36.48-13.909333-41.429333-33.408l-1.024-4.992c-16.469333-115.797333-106.282667-206.208-217.856-216.618667zM682.666667 85.333333a215.253333 215.253333 0 0 1 42.368 4.181334A213.333333 213.333333 0 0 1 896 298.666667c0 117.845333-95.488 213.333333-213.333333 213.333333l-4.992-0.298667A42.666667 42.666667 0 0 1 682.666667 426.666667a128 128 0 1 0 0-256l-4.992-0.298667A42.666667 42.666667 0 0 1 682.666667 85.333333z" fill="#5D6E7F" p-id="1273"></path></svg>